Coordinates
version=1
nRows=10
nColumns=65
inDegrees=yes

Units are S.I. units (second, meters, Newtons, ...)
If the header above contains a line with 'inDegrees', this indicates whether rotational values are in degrees (yes) or radians (no).

endheader
time	pelvis_tilt	pelvis_list	pelvis_rotation	pelvis_tx	pelvis_ty	pelvis_tz	hip_flexion_r	hip_adduction_r	hip_rotation_r	knee_angle_r	knee_flexion_r_beta	hip_flexion_l	hip_adduction_l	hip_rotation_l	knee_flexion_l	knee_flexion_l_beta	L5_S1_Flex_Ext	L5_S1_Lat_Bending	L5_S1_axial_rotation	L1_T12_Flex_Ext	L1_T12_Lat_Bending	L1_T12_axial_rotation	C7_T1_Flex_Ext	C7_T1_Lat_Bending	C7_T1_axial_rotation	C1_Skull_Flex_Ext	C1_Skull_Lat_Bending	C1_Skull_axial_rotation	stnclv_protraction_r	stnclv_elevation_r	arm_flex_r	arm_add_r	arm_rot_r	stnclv_protraction_l	stnclv_elevation_l	arm_flex_l	arm_add_l	arm_rot_l	elbow_flex_r	pro_sup_r	wrist_flex_r	wrist_dev_r	elbow_flex_l	pro_sup_l	wrist_flex_l	wrist_dev_l	ankle_angle_r	subtalar_angle_r	ankle_internal_rotation_r	chopart_flexion_r	chopart_inversion_r	chopart_internal_rotation_r	metatarsophalangeal_flexion_r	metatarsophalangeal_inversion_r	metatarsophalangeal_internal_rotation_r	ankle_flexion_l	ankle_inversion_l	ankle_internal_rotation_l	chopart_flexion_l	chopart_inversion_l	chopart_internal_rotation_l	metatarsophalangeal_flexion_l	metatarsophalangeal_inversion_l	metatarsophalangeal_internal_rotation_l
      4.85000000	     -9.25660979	     12.22496940	    184.79954671	      3.29512788	      0.75635566	     -0.61777881	     63.53937846	     -9.40191884	     -5.44636114	    118.14005407	      2.06193292	     56.64749349	     -7.14061600	    -16.99308999	     24.29443157	      0.42401782	    -35.21238640	     -1.51289875	      6.26069518	      2.97170081	     -1.97415972	      6.26069518	      0.00000000	      0.00000000	      0.00000000	      0.00000000	      0.00000000	      0.00000000	      1.23145777	     10.82747963	     -4.41941768	    -24.97730924	    -16.90300019	     -8.48611927	     17.34457412	    -18.11398017	    -43.12359045	    -48.04539370	     61.86599561	     21.65949417	    -23.70001731	     -2.73231488	     84.69823764	      6.72703065	    -16.53694802	     -2.47592973	    -12.12805156	     -1.54562211	     -6.01153432	      0.00000000	     10.57754141	      0.00000000	      7.01559191	      0.00000000	      0.00000000	     -6.15777273	     12.35558718	      4.07747674	      0.00000000	      3.77595002	      0.00000000	     11.25770041	      0.00000000	      0.00000000
      4.85500000	     -9.71804094	     13.60421539	    185.90232799	      3.26782684	      0.75426496	     -0.61518491	     62.79119256	     -9.31985941	     -6.12341144	    119.63003527	      2.08793800	     55.92642346	     -7.03355674	    -15.60915356	     23.74098325	      0.41435833	    -35.01421049	     -0.27892013	      6.27140209	      2.49013894	     -1.49953298	      6.27140209	      0.00000000	      0.00000000	      0.00000000	      0.00000000	      0.00000000	      0.00000000	      1.17246272	     10.19654824	     -5.04535095	    -25.51124694	    -17.49985376	     -7.92629750	     16.88238868	    -17.55458757	    -43.54630301	    -47.89162413	     59.96381228	     21.53715982	    -23.67985325	     -2.52478031	     85.84094565	      6.89882255	    -16.53452945	     -2.80512698	    -11.76436568	     -1.60504565	     -5.79101641	      0.00000000	     10.48813865	      0.00000000	      6.88298876	      0.00000000	      0.00000000	     -5.71450680	     12.49586506	      4.00871588	      0.00000000	      4.00151745	      0.00000000	     11.06536678	      0.00000000	      0.00000000
      4.86000000	    -10.40291100	     14.64028475	    186.97106983	      3.24047275	      0.75282550	     -0.61202387	     61.78356682	     -9.46631216	     -6.48442338	    120.94048994	      2.11080975	     54.80457068	     -6.83138601	    -14.39136910	     23.45790462	      0.40941767	    -35.02693654	      0.82274319	      6.22009480	      1.92885989	     -1.22522242	      6.22009480	      0.00000000	      0.00000000	      0.00000000	      0.00000000	      0.00000000	      0.00000000	      1.17088335	      9.51427311	     -5.64523286	    -26.07890905	    -18.03184935	     -7.33520321	     16.27798811	    -16.94935571	    -44.05588526	    -47.74512524	     58.05345497	     21.43231075	    -23.62932237	     -2.30104833	     86.89729298	      7.10023260	    -16.54110244	     -3.12705375	    -10.62104013	     -1.98085860	     -5.71058414	      0.00000000	     10.27083613	      0.00000000	      6.87909385	      0.00000000	      0.00000000	     -5.63475704	     12.42003741	      4.10313186	      0.00000000	      4.22141591	      0.00000000	     10.87602576	      0.00000000	      0.00000000
      4.86500000	    -11.30622535	     15.61434616	    187.96785270	      3.21311753	      0.75204705	     -0.60882682	     60.54362075	     -9.42039537	     -6.80245600	    121.91642983	      2.12784311	     53.36632530	     -6.76369906	    -13.09181234	     23.28494131	      0.40639889	    -35.18091097	      2.16205073	      6.15457767	      1.20767118	     -1.39555377	      6.15457767	      0.00000000	      0.00000000	      0.00000000	      0.00000000	      0.00000000	      0.00000000	      1.04849117	      8.38719539	     -5.87603962	    -26.71640459	    -18.80845746	     -6.91352935	     15.38056585	    -16.33877287	    -45.23587213	    -47.57590266	     56.23998324	     21.32511977	    -23.56947740	     -2.12747466	     87.69569034	      7.55550927	    -16.60769253	     -3.67412465	     -9.23302313	     -2.87180560	     -6.14301069	      0.00000000	      9.94123973	      0.00000000	      6.81875725	      0.00000000	      0.00000000	     -6.32795829	     11.76405169	      4.41123387	      0.00000000	      4.88594339	      0.00000000	     10.40828519	      0.00000000	      0.00000000
      4.87000000	    -12.09209610	     16.23341966	    188.74535812	      3.18581199	      0.75107249	     -0.60588370	     59.64217680	     -9.41866912	     -6.66175115	    122.72857758	      2.14201777	     51.92753245	     -6.66859959	    -12.37727386	     23.09303980	      0.40304958	    -35.25836718	      3.07838337	      6.09224672	      0.50647546	     -1.59908583	      6.09224672	      0.00000000	      0.00000000	      0.00000000	      0.00000000	      0.00000000	      0.00000000	      0.94873063	      7.19470113	     -6.18444794	    -27.48397128	    -19.50460236	     -6.44212079	     14.45585297	    -15.66888889	    -46.60774285	    -47.26750385	     54.33748118	     21.23552722	    -23.47610813	     -1.94283637	     88.38647166	      8.04491787	    -16.75851084	     -4.24483566	     -7.94782613	     -3.85450483	     -6.89700569	      0.00000000	      9.83980256	      0.00000000	      6.72636749	      0.00000000	      0.00000000	     -8.91749559	      9.97829680	      5.39980981	      0.00000000	      5.59501622	      0.00000000	      9.91698518	      0.00000000	      0.00000000
      4.87500000	    -12.51808228	     16.66915492	    189.33124227	      3.15870096	      0.74942949	     -0.60308284	     59.32527005	     -9.49151444	     -6.26222389	    123.34348180	      2.15274987	     50.87197010	     -6.49417584	    -12.18371903	     22.81234883	      0.39815060	    -35.01673502	      4.00467620	      5.93089635	     -0.29145861	     -2.13122837	      5.93089635	      0.00000000	      0.00000000	      0.00000000	      0.00000000	      0.00000000	      0.00000000	      0.80078084	      5.89827947	     -6.54236206	    -28.43739543	    -19.75225714	     -6.59691929	     12.83415459	    -14.50798842	    -49.46976687	    -46.15825923	     52.80577282	     21.30724693	    -23.22749195	     -1.95603529	     88.58593149	      9.08436492	    -17.60466097	     -5.37221003	     -6.93909818	     -5.50647033	     -7.99586991	      0.00000000	     10.85664095	      0.00000000	      6.28208586	      0.00000000	      0.00000000	    -13.44696443	      5.01041670	      6.97658370	      0.00000000	      8.97074696	      0.00000000	      9.24077230	      0.00000000	      0.00000000
      4.88000000	    -12.97254807	     16.87801093	    190.06129942	      3.13235478	      0.74762741	     -0.59995246	     59.16115745	     -9.80250579	     -5.66979704	    123.69898015	      2.15895448	     49.96444817	     -6.05911878	    -12.01239094	     22.54021329	      0.39340094	    -34.97351366	      4.17587517	      5.73065330	     -0.69797151	     -1.75044952	      5.73065330	      0.00000000	      0.00000000	      0.00000000	      0.00000000	      0.00000000	      0.00000000	      0.70496347	      4.90460575	     -6.82581632	    -29.12805181	    -20.49160872	     -5.84730365	     12.25522589	    -13.74897821	    -49.92183061	    -45.63849851	     50.88505559	     21.06489941	    -23.23632950	     -1.66924139	     89.23905264	      9.17955486	    -17.87104927	     -5.57958269	     -6.34985701	     -6.23498110	     -9.39857762	      0.00000000	     10.83953830	      0.00000000	      6.24630407	      0.00000000	      0.00000000	    -20.22364300	      1.56199245	      8.62436643	      0.00000000	      8.41169198	      0.00000000	      8.85113724	      0.00000000	      0.00000000
      4.88500000	    -13.09854143	     17.00059581	    190.93502811	      3.10680873	      0.74482918	     -0.59657302	     59.54512090	    -10.41605200	     -5.01785133	    123.87839974	      2.16208595	     49.78705791	     -5.35180996	    -12.04336659	     22.69854133	      0.39616428	    -34.67052705	      4.39859451	      5.36459450	     -1.15651151	     -1.45279814	      5.36459450	      0.00000000	      0.00000000	      0.00000000	      0.00000000	      0.00000000	      0.00000000	      0.63967208	      3.88743760	     -7.16860466	    -29.93305296	    -21.05120634	     -5.30597719	     11.52760803	    -12.86595734	    -50.88253819	    -44.92457342	     49.18230112	     20.79609040	    -23.26486731	     -1.44620166	     89.64015883	      9.28734401	    -18.23651132	     -5.83225843	     -6.03732002	     -7.01263902	    -10.82275032	      0.00000000	     11.02392948	      0.00000000	      6.16045971	      0.00000000	      0.00000000	    -27.45174261	     -3.26796163	      9.99420593	      0.00000000	      7.52054477	      0.00000000	      8.15049704	      0.00000000	      0.00000000
      4.89000000	    -13.12698298	     17.13867658	    192.22494109	      3.08264747	      0.74117425	     -0.59232354	     60.14177864	    -11.49936114	     -4.55510744	    123.80884023	      2.16087191	     50.36137531	     -4.28780779	    -11.58109824	     23.92018281	      0.41748595	    -34.62426153	      4.92027194	      4.78345431	     -1.15732577	     -1.07216606	      4.78345431	      0.00000000	      0.00000000	      0.00000000	      0.00000000	      0.00000000	      0.00000000	      0.64800290	      3.37987619	     -7.60627177	    -30.40163668	    -21.35441646	     -4.49287934	     10.97979168	    -12.28492096	    -51.22564917	    -44.52787893	     47.85480127	     20.64109090	    -23.26467361	     -1.25660532	     90.05193049	      9.30971590	    -18.35754018	     -5.94387960	     -5.73192748	     -7.46086233	    -12.31222517	      0.00000000	     11.00963549	      0.00000000	      6.16308963	      0.00000000	      0.00000000	    -33.73752477	     -6.30576502	      9.79918724	      0.00000000	      6.51789212	      0.00000000	      7.58264000	      0.00000000	      0.00000000
      4.89500000	    -12.77491698	     17.14895557	    193.58777779	      3.05931465	      0.73659361	     -0.58861108	     61.33860263	    -12.77386703	     -3.88873158	    123.61172535	      2.15743160	     52.07786369	     -3.08613419	    -11.17482043	     27.10638663	      0.47309569	    -34.40843824	      5.11958676	      4.09171026	     -0.93756632	     -0.56682069	      4.09171026	      0.00000000	      0.00000000	      0.00000000	      0.00000000	      0.00000000	      0.00000000	      0.63654484	      2.47334161	     -7.90454369	    -31.14520968	    -21.96258040	     -3.74487190	     10.45775930	    -11.62311072	    -51.94099693	    -43.90113350	     46.18400998	     20.34545994	    -23.32209576	     -1.01244666	     90.22693366	      9.31801412	    -18.55922888	     -6.07536539	     -5.43723293	     -8.22962452	    -13.41769564	      0.00000000	     10.99002434	      0.00000000	      6.18446850	      0.00000000	      0.00000000	    -36.76922089	     -9.84442039	      8.68088125	      0.00000000	      4.13787607	      0.00000000	      6.87495465	      0.00000000	      0.00000000
